# xmcd
#
# Track frame offsets: 
#        150
#        13471
#        33031
#        54325
#        68822
#        87805
#        113461
#        130395
#        149348
#        165466
#        181529
#        208010
#        227462
#        251416
#        261584
#        265772
#        286612
#        308626
#        327162
#        342700
#
# Disc length: 4728 seconds
#
# Revision: 0
# Processed by: cddbd v1.4PL0 Copyright (c) Steve Scherf et al.
# Submitted via: ExactAudioCopy v0.95a3
#
DISCID=12127614
DTITLE=Grand, Otis - In Grand Style Disc 1
DYEAR=2003
DGENRE=Blues
TTITLE0=Love at First Sight
TTITLE1=Woke Up This Morning
TTITLE2=Fix Our Love
TTITLE3=Always Hot
TTITLE4=Whole Lotta Lovin'
TTITLE5=Don't Know Why
TTITLE6=No Alibi
TTITLE7=Things Are Getting Harder To Do
TTITLE8=Grand Style
TTITLE9=Real Gone Lover
TTITLE10=SRV (My Mood Too)
TTITLE11=Leave That Girl
TTITLE12=Your Love Pulls no Punches
TTITLE13=Teach Me How To Love You
TTITLE14=He Knows the Blues
TTITLE15=Finish Line
TTITLE16=Careless Living
TTITLE17=No Reasons
TTITLE18=5 to 99 Blues
TTITLE19=Looking Good
EXTD=
EXTT0=
EXTT1=
EXTT2=
EXTT3=
EXTT4=
EXTT5=
EXTT6=
EXTT7=
EXTT8=
EXTT9=
EXTT10=
EXTT11=
EXTT12=
EXTT13=
EXTT14=
EXTT15=
EXTT16=
EXTT17=
EXTT18=
EXTT19=
PLAYORDER=
